<?xml version="1.0" encoding="UTF-8" standalone="no"?>
<!DOCTYPE svg PUBLIC "-//W3C//DTD SVG 1.1//EN"
 "http://www.w3.org/Graphics/SVG/1.1/DTD/svg11.dtd">
<!-- Generated by graphviz version 2.44.1 (20200629.0846)
 -->
<!-- Title: snakemake_dag Pages: 1 -->
<svg width="369pt" height="620pt"
 viewBox="0.00 0.00 368.50 620.00" xmlns="http://www.w3.org/2000/svg" xmlns:xlink="http://www.w3.org/1999/xlink">
<g id="graph0" class="graph" transform="scale(1 1) rotate(0) translate(4 616)">
<title>snakemake_dag</title>
<polygon fill="white" stroke="transparent" points="-4,4 -4,-616 364.5,-616 364.5,4 -4,4"/>
<!-- 0 -->
<g id="node1" class="node">
<title>0</title>
<path fill="none" stroke="#56d882" stroke-width="2" d="M186.5,-36C186.5,-36 156.5,-36 156.5,-36 150.5,-36 144.5,-30 144.5,-24 144.5,-24 144.5,-12 144.5,-12 144.5,-6 150.5,0 156.5,0 156.5,0 186.5,0 186.5,0 192.5,0 198.5,-6 198.5,-12 198.5,-12 198.5,-24 198.5,-24 198.5,-30 192.5,-36 186.5,-36"/>
<text text-anchor="middle" x="171.5" y="-15.5" font-family="sans" font-size="10.00">all</text>
</g>
<!-- 1 -->
<g id="node2" class="node">
<title>1</title>
<path fill="none" stroke="#56d8d8" stroke-width="2" d="M160,-180C160,-180 77,-180 77,-180 71,-180 65,-174 65,-168 65,-168 65,-156 65,-156 65,-150 71,-144 77,-144 77,-144 160,-144 160,-144 166,-144 172,-150 172,-156 172,-156 172,-168 172,-168 172,-174 166,-180 160,-180"/>
<text text-anchor="middle" x="118.5" y="-159.5" font-family="sans" font-size="10.00">ATAC_macs2_peaks</text>
</g>
<!-- 1&#45;&gt;0 -->
<g id="edge1" class="edge">
<title>1&#45;&gt;0</title>
<path fill="none" stroke="grey" stroke-width="2" d="M121.24,-143.81C124.49,-125.55 130.74,-96.04 140.5,-72 144.27,-62.72 149.45,-53.1 154.5,-44.66"/>
<polygon fill="grey" stroke="grey" stroke-width="2" points="157.56,-46.36 159.85,-36.02 151.61,-42.68 157.56,-46.36"/>
</g>
<!-- 2 -->
<g id="node3" class="node">
<title>2</title>
<path fill="none" stroke="#d85656" stroke-width="2" d="M199,-324C199,-324 12,-324 12,-324 6,-324 0,-318 0,-312 0,-312 0,-300 0,-300 0,-294 6,-288 12,-288 12,-288 199,-288 199,-288 205,-288 211,-294 211,-300 211,-300 211,-312 211,-312 211,-318 205,-324 199,-324"/>
<text text-anchor="middle" x="105.5" y="-303.5" font-family="sans" font-size="10.00">ATAC_reads_Tn5_shifting_duplicate_remove</text>
</g>
<!-- 2&#45;&gt;1 -->
<g id="edge3" class="edge">
<title>2&#45;&gt;1</title>
<path fill="none" stroke="grey" stroke-width="2" d="M107.07,-287.87C109.28,-263.67 113.35,-219.21 115.99,-190.39"/>
<polygon fill="grey" stroke="grey" stroke-width="2" points="119.5,-190.47 116.93,-180.19 112.53,-189.83 119.5,-190.47"/>
</g>
<!-- 3 -->
<g id="node4" class="node">
<title>3</title>
<path fill="none" stroke="#56a9d8" stroke-width="2" d="M182.5,-396C182.5,-396 82.5,-396 82.5,-396 76.5,-396 70.5,-390 70.5,-384 70.5,-384 70.5,-372 70.5,-372 70.5,-366 76.5,-360 82.5,-360 82.5,-360 182.5,-360 182.5,-360 188.5,-360 194.5,-366 194.5,-372 194.5,-372 194.5,-384 194.5,-384 194.5,-390 188.5,-396 182.5,-396"/>
<text text-anchor="middle" x="132.5" y="-375.5" font-family="sans" font-size="10.00">extract_R2_ATAC_reads</text>
</g>
<!-- 3&#45;&gt;2 -->
<g id="edge4" class="edge">
<title>3&#45;&gt;2</title>
<path fill="none" stroke="grey" stroke-width="2" d="M125.83,-359.7C122.79,-351.81 119.12,-342.3 115.74,-333.55"/>
<polygon fill="grey" stroke="grey" stroke-width="2" points="118.96,-332.17 112.1,-324.1 112.43,-334.69 118.96,-332.17"/>
</g>
<!-- 4 -->
<g id="node5" class="node">
<title>4</title>
<path fill="none" stroke="#d8ac56" stroke-width="2" d="M255.5,-468C255.5,-468 137.5,-468 137.5,-468 131.5,-468 125.5,-462 125.5,-456 125.5,-456 125.5,-444 125.5,-444 125.5,-438 131.5,-432 137.5,-432 137.5,-432 255.5,-432 255.5,-432 261.5,-432 267.5,-438 267.5,-444 267.5,-444 267.5,-456 267.5,-456 267.5,-462 261.5,-468 255.5,-468"/>
<text text-anchor="middle" x="196.5" y="-447.5" font-family="sans" font-size="10.00">prase_pairs_from_BAM_files</text>
</g>
<!-- 4&#45;&gt;3 -->
<g id="edge5" class="edge">
<title>4&#45;&gt;3</title>
<path fill="none" stroke="grey" stroke-width="2" d="M180.68,-431.7C172.93,-423.22 163.46,-412.86 154.98,-403.58"/>
<polygon fill="grey" stroke="grey" stroke-width="2" points="157.47,-401.12 148.14,-396.1 152.3,-405.85 157.47,-401.12"/>
</g>
<!-- 10 -->
<g id="node11" class="node">
<title>10</title>
<path fill="none" stroke="#afd856" stroke-width="2" d="M310,-396C310,-396 239,-396 239,-396 233,-396 227,-390 227,-384 227,-384 227,-372 227,-372 227,-366 233,-360 239,-360 239,-360 310,-360 310,-360 316,-360 322,-366 322,-372 322,-372 322,-384 322,-384 322,-390 316,-396 310,-396"/>
<text text-anchor="middle" x="274.5" y="-375.5" font-family="sans" font-size="10.00">select_valid_pairs</text>
</g>
<!-- 4&#45;&gt;10 -->
<g id="edge12" class="edge">
<title>4&#45;&gt;10</title>
<path fill="none" stroke="grey" stroke-width="2" d="M215.78,-431.7C225.42,-423.05 237.23,-412.45 247.73,-403.03"/>
<polygon fill="grey" stroke="grey" stroke-width="2" points="250.34,-405.39 255.44,-396.1 245.66,-400.18 250.34,-405.39"/>
</g>
<!-- 5 -->
<g id="node6" class="node">
<title>5</title>
<path fill="none" stroke="#56d8a9" stroke-width="2" d="M236.5,-540C236.5,-540 156.5,-540 156.5,-540 150.5,-540 144.5,-534 144.5,-528 144.5,-528 144.5,-516 144.5,-516 144.5,-510 150.5,-504 156.5,-504 156.5,-504 236.5,-504 236.5,-504 242.5,-504 248.5,-510 248.5,-516 248.5,-516 248.5,-528 248.5,-528 248.5,-534 242.5,-540 236.5,-540"/>
<text text-anchor="middle" x="196.5" y="-519.5" font-family="sans" font-size="10.00">bwa_mem_mapping</text>
</g>
<!-- 5&#45;&gt;4 -->
<g id="edge6" class="edge">
<title>5&#45;&gt;4</title>
<path fill="none" stroke="grey" stroke-width="2" d="M196.5,-503.7C196.5,-495.98 196.5,-486.71 196.5,-478.11"/>
<polygon fill="grey" stroke="grey" stroke-width="2" points="200,-478.1 196.5,-468.1 193,-478.1 200,-478.1"/>
</g>
<!-- 6 -->
<g id="node7" class="node">
<title>6</title>
<path fill="none" stroke="#80d856" stroke-width="2" d="M236.5,-612C236.5,-612 156.5,-612 156.5,-612 150.5,-612 144.5,-606 144.5,-600 144.5,-600 144.5,-588 144.5,-588 144.5,-582 150.5,-576 156.5,-576 156.5,-576 236.5,-576 236.5,-576 242.5,-576 248.5,-582 248.5,-588 248.5,-588 248.5,-600 248.5,-600 248.5,-606 242.5,-612 236.5,-612"/>
<text text-anchor="middle" x="196.5" y="-591.5" font-family="sans" font-size="10.00">fastq_preprocessing</text>
</g>
<!-- 6&#45;&gt;5 -->
<g id="edge7" class="edge">
<title>6&#45;&gt;5</title>
<path fill="none" stroke="grey" stroke-width="2" d="M196.5,-575.7C196.5,-567.98 196.5,-558.71 196.5,-550.11"/>
<polygon fill="grey" stroke="grey" stroke-width="2" points="200,-550.1 196.5,-540.1 193,-550.1 200,-550.1"/>
</g>
<!-- 7 -->
<g id="node8" class="node">
<title>7</title>
<path fill="none" stroke="#5682d8" stroke-width="2" d="M285.5,-108C285.5,-108 161.5,-108 161.5,-108 155.5,-108 149.5,-102 149.5,-96 149.5,-96 149.5,-84 149.5,-84 149.5,-78 155.5,-72 161.5,-72 161.5,-72 285.5,-72 285.5,-72 291.5,-72 297.5,-78 297.5,-84 297.5,-84 297.5,-96 297.5,-96 297.5,-102 291.5,-108 285.5,-108"/>
<text text-anchor="middle" x="223.5" y="-87.5" font-family="sans" font-size="10.00">HiC_contact_matrices_Cooler</text>
</g>
<!-- 7&#45;&gt;0 -->
<g id="edge2" class="edge">
<title>7&#45;&gt;0</title>
<path fill="none" stroke="grey" stroke-width="2" d="M210.65,-71.7C204.47,-63.39 196.96,-53.28 190.18,-44.14"/>
<polygon fill="grey" stroke="grey" stroke-width="2" points="192.98,-42.04 184.21,-36.1 187.36,-46.22 192.98,-42.04"/>
</g>
<!-- 8 -->
<g id="node9" class="node">
<title>8</title>
<path fill="none" stroke="#d88556" stroke-width="2" d="M348.5,-252C348.5,-252 224.5,-252 224.5,-252 218.5,-252 212.5,-246 212.5,-240 212.5,-240 212.5,-228 212.5,-228 212.5,-222 218.5,-216 224.5,-216 224.5,-216 348.5,-216 348.5,-216 354.5,-216 360.5,-222 360.5,-228 360.5,-228 360.5,-240 360.5,-240 360.5,-246 354.5,-252 348.5,-252"/>
<text text-anchor="middle" x="286.5" y="-231.5" font-family="sans" font-size="10.00">remove_same_fragment_pairs</text>
</g>
<!-- 8&#45;&gt;7 -->
<g id="edge8" class="edge">
<title>8&#45;&gt;7</title>
<path fill="none" stroke="grey" stroke-width="2" d="M268.63,-215.9C259.5,-206.19 248.97,-193.34 242.5,-180 233.05,-160.51 228.27,-136.37 225.87,-118.15"/>
<polygon fill="grey" stroke="grey" stroke-width="2" points="229.34,-117.72 224.72,-108.19 222.39,-118.53 229.34,-117.72"/>
</g>
<!-- 11 -->
<g id="node12" class="node">
<title>11</title>
<path fill="none" stroke="#59d856" stroke-width="2" d="M309,-180C309,-180 264,-180 264,-180 258,-180 252,-174 252,-168 252,-168 252,-156 252,-156 252,-150 258,-144 264,-144 264,-144 309,-144 309,-144 315,-144 321,-150 321,-156 321,-156 321,-168 321,-168 321,-174 315,-180 309,-180"/>
<text text-anchor="middle" x="286.5" y="-159.5" font-family="sans" font-size="10.00">make_index</text>
</g>
<!-- 8&#45;&gt;11 -->
<g id="edge13" class="edge">
<title>8&#45;&gt;11</title>
<path fill="none" stroke="grey" stroke-width="2" d="M286.5,-215.7C286.5,-207.98 286.5,-198.71 286.5,-190.11"/>
<polygon fill="grey" stroke="grey" stroke-width="2" points="290,-190.1 286.5,-180.1 283,-190.1 290,-190.1"/>
</g>
<!-- 9 -->
<g id="node10" class="node">
<title>9</title>
<path fill="none" stroke="#d6d856" stroke-width="2" d="M336,-324C336,-324 241,-324 241,-324 235,-324 229,-318 229,-312 229,-312 229,-300 229,-300 229,-294 235,-288 241,-288 241,-288 336,-288 336,-288 342,-288 348,-294 348,-300 348,-300 348,-312 348,-312 348,-318 342,-324 336,-324"/>
<text text-anchor="middle" x="288.5" y="-303.5" font-family="sans" font-size="10.00">remove_duplicate_pairs</text>
</g>
<!-- 9&#45;&gt;8 -->
<g id="edge10" class="edge">
<title>9&#45;&gt;8</title>
<path fill="none" stroke="grey" stroke-width="2" d="M288.01,-287.7C287.79,-279.98 287.52,-270.71 287.27,-262.11"/>
<polygon fill="grey" stroke="grey" stroke-width="2" points="290.77,-262 286.99,-252.1 283.78,-262.2 290.77,-262"/>
</g>
<!-- 10&#45;&gt;9 -->
<g id="edge11" class="edge">
<title>10&#45;&gt;9</title>
<path fill="none" stroke="grey" stroke-width="2" d="M277.96,-359.7C279.5,-351.98 281.36,-342.71 283.08,-334.11"/>
<polygon fill="grey" stroke="grey" stroke-width="2" points="286.55,-334.6 285.08,-324.1 279.69,-333.22 286.55,-334.6"/>
</g>
<!-- 11&#45;&gt;7 -->
<g id="edge9" class="edge">
<title>11&#45;&gt;7</title>
<path fill="none" stroke="grey" stroke-width="2" d="M270.93,-143.7C263.3,-135.22 253.98,-124.86 245.62,-115.58"/>
<polygon fill="grey" stroke="grey" stroke-width="2" points="248.19,-113.2 238.89,-108.1 242.98,-117.88 248.19,-113.2"/>
</g>
</g>
</svg>
